<svg width="32" height="22" fill="none" xmlns="http://www.w3.org/2000/svg">
  <path fill-rule="evenodd" clip-rule="evenodd" d="M-.152 1.428a1.5 1.5 0 0 1 1.5-1.5h29.538a1.5 1.5 0 0 1 0 3H1.348a1.5 1.5 0 0 1-1.5-1.5Zm0 9.307a1.5 1.5 0 0 1 1.5-1.5h29.538a1.5 1.5 0 0 1 0 3H1.348a1.5 1.5 0 0 1-1.5-1.5Zm0 9.308a1.5 1.5 0 0 1 1.5-1.5h29.538a1.5 1.5 0 0 1 0 3H1.348a1.5 1.5 0 0 1-1.5-1.5Z" fill="#2E2F42"/>
  <path clip-rule="evenodd" d="M-.152 1.428a1.5 1.5 0 0 1 1.5-1.5h29.538a1.5 1.5 0 0 1 0 3H1.348a1.5 1.5 0 0 1-1.5-1.5Zm0 9.307a1.5 1.5 0 0 1 1.5-1.5h29.538a1.5 1.5 0 0 1 0 3H1.348a1.5 1.5 0 0 1-1.5-1.5Zm0 9.308a1.5 1.5 0 0 1 1.5-1.5h29.538a1.5 1.5 0 0 1 0 3H1.348a1.5 1.5 0 0 1-1.5-1.5Z" stroke="#000" stroke-linecap="round" stroke-linejoin="round"/>
  <path clip-rule="evenodd" d="M-.152 1.428a1.5 1.5 0 0 1 1.5-1.5h29.538a1.5 1.5 0 0 1 0 3H1.348a1.5 1.5 0 0 1-1.5-1.5Zm0 9.307a1.5 1.5 0 0 1 1.5-1.5h29.538a1.5 1.5 0 0 1 0 3H1.348a1.5 1.5 0 0 1-1.5-1.5Zm0 9.308a1.5 1.5 0 0 1 1.5-1.5h29.538a1.5 1.5 0 0 1 0 3H1.348a1.5 1.5 0 0 1-1.5-1.5Z" stroke="#000" stroke-opacity=".2" stroke-linecap="round" stroke-linejoin="round"/>
</svg>
